<?xml version="1.0" standalone="no"?>
<!DOCTYPE svg PUBLIC "-//W3C//DTD SVG 20010904//EN"
 "http://www.w3.org/TR/2001/REC-SVG-20010904/DTD/svg10.dtd">
<svg version="1.0" xmlns="http://www.w3.org/2000/svg"
 width="634.000000pt" height="634.000000pt" viewBox="0 0 634.000000 634.000000"
 preserveAspectRatio="xMidYMid meet">
<metadata>
Created by potrace 1.11, written by Peter Selinger 2001-2013
</metadata>
<g transform="translate(0.000000,634.000000) scale(0.100000,-0.100000)"
fill="#000000" stroke="none">
<path d="M4557 5034 c-2 -3 -17 -7 -33 -9 -57 -8 -80 -15 -119 -34 -22 -10
-43 -17 -47 -14 -5 2 -8 -1 -8 -6 0 -6 -6 -11 -13 -11 -30 0 -179 -110 -265
-197 -51 -51 -101 -93 -110 -94 -9 0 -24 -2 -32 -4 -91 -23 -231 -39 -435 -52
-225 -14 -723 -7 -835 11 -14 3 -52 7 -85 10 -54 6 -151 20 -197 29 -9 2 -44
33 -77 69 -132 144 -307 249 -472 284 -42 9 -221 10 -269 1 -99 -18 -248 -88
-357 -168 -89 -66 -244 -225 -303 -313 -93 -139 -200 -373 -275 -601 -38 -116
-66 -204 -71 -225 -2 -8 -15 -55 -29 -105 -14 -49 -27 -99 -30 -110 -2 -11
-11 -51 -20 -90 -40 -179 -63 -299 -70 -365 -1 -14 -6 -50 -10 -80 -11 -73
-13 -95 -20 -160 -3 -30 -8 -66 -11 -80 -2 -14 -7 -52 -10 -85 -3 -33 -7 -78
-9 -100 -18 -172 -24 -527 -12 -650 34 -340 119 -471 362 -561 97 -35 245 -35
360 3 117 37 189 92 405 305 252 248 498 406 800 513 130 46 232 58 630 70
113 4 241 6 285 5 44 0 100 0 125 1 25 1 50 1 55 1 6 0 80 -3 166 -6 85 -3
184 -8 220 -10 35 -3 105 -8 154 -11 84 -6 180 -29 250 -60 17 -7 36 -15 44
-17 8 -2 70 -31 138 -65 136 -68 267 -152 382 -246 65 -53 291 -265 340 -320
45 -50 165 -124 249 -151 137 -46 305 -33 442 32 73 36 174 136 206 206 25 56
27 62 44 151 6 28 13 61 15 75 24 109 24 491 0 740 -10 113 -16 167 -20 195
-2 17 -7 57 -10 90 -4 33 -8 71 -11 85 -2 14 -6 45 -9 70 -3 25 -8 55 -11 68
-2 12 -7 44 -10 70 -3 26 -7 58 -10 72 -3 14 -7 34 -9 45 -2 16 -62 273 -80
345 -42 167 -160 523 -217 649 -39 89 -127 261 -138 271 -3 3 -15 21 -27 41
-72 125 -304 333 -455 410 -68 34 -160 70 -166 64 -2 -2 -16 1 -31 7 -26 10
-235 21 -244 12z"/>
</g>
</svg>
